<?xml version="1.0" encoding="UTF-8" standalone="no"?>
<!-- Created with Inkscape (http://www.inkscape.org/) -->

<svg
   width="486.39954"
   height="63.30323"
   viewBox="0 0 128.69321 16.74898"
   version="1.1"
   id="svg5"
   inkscape:version="1.1 (c68e22c387, 2021-05-23)"
   sodipodi:docname="logo.svg"
   xmlns:inkscape="http://www.inkscape.org/namespaces/inkscape"
   xmlns:sodipodi="http://sodipodi.sourceforge.net/DTD/sodipodi-0.dtd"
   xmlns="http://www.w3.org/2000/svg"
   xmlns:svg="http://www.w3.org/2000/svg">
  <sodipodi:namedview
     id="namedview7"
     pagecolor="#ffffff"
     bordercolor="#666666"
     borderopacity="1.0"
     inkscape:pageshadow="2"
     inkscape:pageopacity="0.0"
     inkscape:pagecheckerboard="0"
     inkscape:document-units="px"
     showgrid="false"
     showguides="true"
     inkscape:guide-bbox="true"
     fit-margin-top="0"
     fit-margin-left="0"
     fit-margin-right="0"
     fit-margin-bottom="0"
     inkscape:zoom="1.4023437"
     inkscape:cx="224.9805"
     inkscape:cy="-13.192201"
     inkscape:window-width="1680"
     inkscape:window-height="987"
     inkscape:window-x="1358"
     inkscape:window-y="-8"
     inkscape:window-maximized="1"
     inkscape:current-layer="text5072">
    <sodipodi:guide
       position="46.416541,5.3068"
       orientation="0,-1"
       id="guide52591" />
    <sodipodi:guide
       position="53.357601,16.643147"
       orientation="0,-1"
       id="guide52593" />
  </sodipodi:namedview>
  <defs
     id="defs2" />
  <g
     inkscape:label="Capa 1"
     inkscape:groupmode="layer"
     id="layer1"
     transform="translate(-3.3867295,-61.453888)">
    <g
       aria-label="ENCOLORADA"
       id="text5072"
       style="font-size:17.6389px;line-height:1.25;font-family:'Riffic Free';-inkscape-font-specification:'Riffic Free';stroke-width:0.264583">
      <path
         d="M 4.6920081,72.778062 V 68.191948 H 11.07729 V 67.080697 H 4.6920081 v -4.392086 h 7.1613939 v -1.12889 H 3.3867295 v 12.347231 h 8.7312555 v -1.12889 z"
         style="font-family:Woodcut;-inkscape-font-specification:Woodcut;fill:#3e77bf;fill-opacity:1"
         id="path48764" />
      <path
         d="M 24.218248,61.559721 V 71.578617 L 16.263104,61.559721 H 15.187131 V 73.906952 H 16.49241 V 63.888056 l 7.937505,10.018896 h 1.075973 V 61.559721 Z"
         style="font-family:Woodcut;-inkscape-font-specification:Woodcut;fill:#3e77bf;fill-opacity:1"
         id="path48766" />
      <path
         d="m 34.889779,74.012785 c 1.816806,0 3.439585,-0.617361 4.533197,-1.816806 L 38.593948,71.36695 c -1.005418,1.040695 -2.240141,1.481668 -3.651253,1.481668 -2.980974,0 -5.221114,-2.187224 -5.221114,-5.115281 0,-2.928058 2.24014,-5.115282 5.221114,-5.115282 1.411112,0 2.645835,0.440973 3.651253,1.464029 l 0.829028,-0.829028 c -1.093612,-1.199445 -2.716391,-1.799168 -4.515558,-1.799168 -3.721808,0 -6.473477,2.663474 -6.473477,6.279449 0,3.615974 2.751669,6.279448 6.455838,6.279448 z"
         style="font-family:Woodcut;-inkscape-font-specification:Woodcut;fill:#3e77bf;fill-opacity:1"
         id="path48768" />
      <path
         d="m 56.744331,73.906952 h 8.219727 v -1.12889 H 58.049609 V 61.559721 h -1.305278 z"
         style="font-family:Woodcut;-inkscape-font-specification:Woodcut;fill:#3e77bf;fill-opacity:1"
         id="path48772" />
      <path
         d="m 72.284149,74.012785 c 3.704169,0 6.473477,-2.663474 6.473477,-6.279448 0,-3.615975 -2.769308,-6.279449 -6.473477,-6.279449 -3.739447,0 -6.491115,2.681113 -6.491115,6.279449 0,3.598335 2.751668,6.279448 6.491115,6.279448 z m 0,-1.164167 c -2.980974,0 -5.203476,-2.169585 -5.203476,-5.115281 0,-2.945697 2.222502,-5.115282 5.203476,-5.115282 2.963336,0 5.168198,2.169585 5.168198,5.115282 0,2.945696 -2.204862,5.115281 -5.168198,5.115281 z"
         style="font-family:Woodcut;-inkscape-font-specification:Woodcut;fill:#3e77bf;fill-opacity:1"
         id="path48774" />
      <path
         d="M 91.545802,73.906952 88.52955,69.673616 c 1.799168,-0.582084 2.822224,-1.940279 2.822224,-3.880558 0,-2.645836 -1.905001,-4.233337 -5.044725,-4.233337 h -4.621392 v 12.347231 h 1.305278 v -3.915836 h 3.316114 c 0.352778,0 0.670278,-0.01764 0.987778,-0.05292 l 2.822224,3.968753 z m -5.274031,-5.027087 h -3.280836 v -6.191254 h 3.280836 c 2.469446,0 3.774725,1.12889 3.774725,3.104447 0,1.940279 -1.305279,3.086807 -3.774725,3.086807 z"
         style="font-family:Woodcut;-inkscape-font-specification:Woodcut;fill:#3e77bf;fill-opacity:1"
         id="path48776" />
      <path
         d="m 103.66372,73.906952 h 1.37584 L 99.39511,61.559721 h -1.28764 l -5.644448,12.347231 h 1.358195 l 1.481668,-3.298475 h 6.879175 z m -7.884585,-4.356809 2.963336,-6.632226 2.963339,6.632226 z"
         style="font-family:Woodcut;-inkscape-font-specification:Woodcut;fill:#3e77bf;fill-opacity:1"
         id="path48778" />
      <path
         d="m 107.08565,73.906952 h 5.02709 c 3.95111,0 6.61459,-2.540002 6.61459,-6.173615 0,-3.633614 -2.66348,-6.173616 -6.61459,-6.173616 h -5.02709 z m 1.30528,-1.12889 V 62.688611 h 3.65125 c 3.28084,0 5.39751,2.08139 5.39751,5.044726 0,2.963335 -2.11667,5.044725 -5.39751,5.044725 z"
         style="font-family:Woodcut;-inkscape-font-specification:Woodcut;fill:#3e77bf;fill-opacity:1"
         id="path48780" />
      <path
         d="m 130.70411,73.906952 h 1.37583 l -5.64445,-12.347231 h -1.28764 l -5.64445,12.347231 h 1.3582 l 1.48167,-3.298475 h 6.87917 z m -7.88459,-4.356809 2.96333,-6.632226 2.96334,6.632226 z"
         style="font-family:Woodcut;-inkscape-font-specification:Woodcut;fill:#3e77bf;fill-opacity:1"
         id="path48782" />
      <g
         id="g52056"
         transform="matrix(-0.04946142,-0.00809966,-0.00809966,0.04946142,58.201081,63.042788)"
         style="fill:#ef9d25;fill-opacity:1">
        <g
           id="g51999"
           style="fill:#ef9d25;fill-opacity:1">
	<g
   id="g51997"
   style="fill:#ef9d25;fill-opacity:1">
		<path
   d="m 273.587,214.965 c 49.11,-49.111 49.109,-129.021 0,-178.132 -49.111,-49.111 -129.02,-49.111 -178.13,0 C 53.793,78.497 47.483,140.462 76.51,188.85 c 0,0 2.085,3.498 -0.731,6.312 -16.065,16.064 -64.263,64.263 -64.263,64.263 -12.791,12.79 -15.836,30.675 -4.493,42.02 l 1.953,1.951 c 11.343,11.345 29.229,8.301 42.019,-4.49 0,0 48.096,-48.097 64.128,-64.128 2.951,-2.951 6.448,-0.866 6.448,-0.866 48.387,29.026 110.352,22.717 152.016,-18.947 z M 118.711,191.71 C 82.423,155.422 82.424,96.378 118.712,60.09 c 36.288,-36.287 95.332,-36.288 131.619,0 36.288,36.287 36.288,95.332 0,131.62 -36.288,36.286 -95.331,36.286 -131.62,0 z"
   id="path51991"
   style="fill:#ef9d25;fill-opacity:1" />

		<g
   id="g51995"
   style="fill:#ef9d25;fill-opacity:1">
			<path
   d="m 126.75,118.424 c -1.689,0 -3.406,-0.332 -5.061,-1.031 -6.611,-2.798 -9.704,-10.426 -6.906,-17.038 17.586,-41.559 65.703,-61.062 107.261,-43.476 6.611,2.798 9.704,10.426 6.906,17.038 -2.799,6.612 -10.425,9.703 -17.039,6.906 -28.354,-11.998 -61.186,1.309 -73.183,29.663 -2.099,4.959 -6.913,7.938 -11.978,7.938 z"
   id="path51993"
   style="fill:#ef9d25;fill-opacity:1" />

		</g>

	</g>

</g>
        <g
           id="g52001"
           style="fill:#ef9d25;fill-opacity:1">
</g>
        <g
           id="g52003"
           style="fill:#ef9d25;fill-opacity:1">
</g>
        <g
           id="g52005"
           style="fill:#ef9d25;fill-opacity:1">
</g>
        <g
           id="g52007"
           style="fill:#ef9d25;fill-opacity:1">
</g>
        <g
           id="g52009"
           style="fill:#ef9d25;fill-opacity:1">
</g>
        <g
           id="g52011"
           style="fill:#ef9d25;fill-opacity:1">
</g>
        <g
           id="g52013"
           style="fill:#ef9d25;fill-opacity:1">
</g>
        <g
           id="g52015"
           style="fill:#ef9d25;fill-opacity:1">
</g>
        <g
           id="g52017"
           style="fill:#ef9d25;fill-opacity:1">
</g>
        <g
           id="g52019"
           style="fill:#ef9d25;fill-opacity:1">
</g>
        <g
           id="g52021"
           style="fill:#ef9d25;fill-opacity:1">
</g>
        <g
           id="g52023"
           style="fill:#ef9d25;fill-opacity:1">
</g>
        <g
           id="g52025"
           style="fill:#ef9d25;fill-opacity:1">
</g>
        <g
           id="g52027"
           style="fill:#ef9d25;fill-opacity:1">
</g>
        <g
           id="g52029"
           style="fill:#ef9d25;fill-opacity:1">
</g>
      </g>
    </g>
  </g>
</svg>
